{
  "accessors": [
    {
      "bufferView": 2,
      "componentType": 5126,
      "count": 14298,
      "max": [
        0.49937400221824646,
        0.5,
        0.1827370524406433
      ],
      "min": [
        -0.49953919649124146,
        -0.5,
        -0.1827370524406433
      ],
      "type": "VEC3"
    },
    {
      "bufferView": 2,
      "byteOffset": 171576,
      "componentType": 5126,
      "count": 14298,
      "max": [
        1.0,
        0.9950737357139587,
        1.0
      ],
      "min": [
        -0.9959240555763245,
        -1.0,
        -1.0
      ],
      "type": "VEC3"
    },
    {
      "bufferView": 1,
      "componentType": 5126,
      "count": 14298,
      "max": [
        0.6869396567344666,
        0.6523768901824951
      ],
      "min": [
        0.0006192177534103394,
        0.0004982650279998779
      ],
      "type": "VEC2"
    },
    {
      "bufferView": 1,
      "byteOffset": 114384,
      "componentType": 5126,
      "count": 14298,
      "max": [
        0.6869396567344666,
        0.6523768901824951
      ],
      "min": [
        0.0006192177534103394,
        0.0004982650279998779
      ],
      "type": "VEC2"
    },
    {
      "bufferView": 1,
      "byteOffset": 228768,
      "componentType": 5126,
      "count": 14298,
      "max": [
        0.6869396567344666,
        0.6523768901824951
      ],
      "min": [
        0.0006192177534103394,
        0.0004982650279998779
      ],
      "type": "VEC2"
    },
    {
      "bufferView": 0,
      "componentType": 5125,
      "count": 77544,
      "type": "SCALAR"
    }
  ],
  "asset": {
    "extras": {
      "author": "Fira Ayu Dwiputri (https://sketchfab.com/firaayudw)",
      "license": "CC-BY-4.0 (http://creativecommons.org/licenses/by/4.0/)",
      "source": "https://sketchfab.com/3d-models/roket-b505b8b0ece3408881ccb3d0e0ae3047",
      "title": "Roket"
    },
    "generator": "Sketchfab-15.50.0",
    "version": "2.0"
  },
  "bufferViews": [
    {
      "buffer": 0,
      "byteLength": 310176,
      "name": "floatBufferViews",
      "target": 34963
    },
    {
      "buffer": 0,
      "byteLength": 343152,
      "byteOffset": 310176,
      "byteStride": 8,
      "name": "floatBufferViews",
      "target": 34962
    },
    {
      "buffer": 0,
      "byteLength": 343152,
      "byteOffset": 653328,
      "byteStride": 12,
      "name": "floatBufferViews",
      "target": 34962
    }
  ],
  "buffers": [
    {
      "byteLength": 996480,
      "uri": "scene.bin"
    }
  ],
  "extensionsRequired": [
    "KHR_materials_pbrSpecularGlossiness"
  ],
  "extensionsUsed": [
    "KHR_materials_pbrSpecularGlossiness"
  ],
  "images": [
    {
      "uri": "textures/material_diffuse.png"
    },
    {
      "uri": "textures/material_specularGlossiness.png"
    }
  ],
  "materials": [
    {
      "doubleSided": true,
      "extensions": {
        "KHR_materials_pbrSpecularGlossiness": {
          "diffuseFactor": [
            1.0,
            1.0,
            1.0,
            1.0
          ],
          "diffuseTexture": {
            "index": 0
          },
          "glossinessFactor": 1.0,
          "specularFactor": [
            1.0,
            1.0,
            1.0
          ],
          "specularGlossinessTexture": {
            "index": 1
          }
        }
      },
      "name": "material"
    }
  ],
  "meshes": [
    {
      "name": "Object_0",
      "primitives": [
        {
          "attributes": {
            "NORMAL": 1,
            "POSITION": 0,
            "TEXCOORD_0": 2,
            "TEXCOORD_1": 3,
            "TEXCOORD_2": 4
          },
          "indices": 5,
          "material": 0,
          "mode": 4
        }
      ]
    }
  ],
  "nodes": [
    {
      "children": [
        1
      ],
      "matrix": [
        1.0,
        0.0,
        0.0,
        0.0,
        0.0,
        2.220446049250313e-16,
        -1.0,
        0.0,
        0.0,
        1.0,
        2.220446049250313e-16,
        0.0,
        0.0,
        0.0,
        0.0,
        1.0
      ],
      "name": "Sketchfab_model"
    },
    {
      "children": [
        2
      ],
      "name": "root"
    },
    {
      "children": [
        3
      ],
      "matrix": [
        1.0,
        0.0,
        0.0,
        0.0,
        0.0,
        2.220446049250313e-16,
        1.0,
        0.0,
        0.0,
        -1.0,
        2.220446049250313e-16,
        0.0,
        0.0,
        0.0,
        0.0,
        1.0
      ],
      "name": "GLTF_SceneRootNode"
    },
    {
      "children": [
        4
      ],
      "name": "root_0"
    },
    {
      "children": [
        5
      ],
      "matrix": [
        0.5621941685676575,
        3.636640893015766e-29,
        2.0943349840307717e-09,
        0.0,
        -1.1509664284130119e-28,
        1.0888242721557617,
        1.1989501624267047e-20,
        0.0,
        -2.9371533069611345e-09,
        -8.681807296448444e-21,
        0.7884366512298584,
        0.0,
        0.03488725423812866,
        -0.05658789351582527,
        0.2407832145690918,
        1.0
      ],
      "name": "node_id29_1"
    },
    {
      "mesh": 0,
      "name": "Object_5"
    }
  ],
  "samplers": [
    {
      "magFilter": 9729,
      "minFilter": 9987,
      "wrapS": 10497,
      "wrapT": 10497
    }
  ],
  "scene": 0,
  "scenes": [
    {
      "name": "Sketchfab_Scene",
      "nodes": [
        0
      ]
    }
  ],
  "textures": [
    {
      "sampler": 0,
      "source": 0
    },
    {
      "sampler": 0,
      "source": 1
    }
  ]
}
